<?xml version="1.0" encoding="UTF-8" standalone="no"?><svg xmlns="http://www.w3.org/2000/svg" xmlns:xlink="http://www.w3.org/1999/xlink" contentScriptType="application/ecmascript" contentStyleType="text/css" height="614px" preserveAspectRatio="none" style="width:886px;height:614px;" version="1.1" viewBox="0 0 886 614" width="886px" zoomAndPan="magnify"><defs><filter height="300%" id="flrn13kigp8qt" width="300%" x="-1" y="-1"><feGaussianBlur result="blurOut" stdDeviation="2.0"/><feColorMatrix in="blurOut" result="blurOut2" type="matrix" values="0 0 0 0 0 0 0 0 0 0 0 0 0 0 0 0 0 0 .4 0"/><feOffset dx="4.0" dy="4.0" in="blurOut2" result="blurOut3"/><feBlend in="SourceGraphic" in2="blurOut3" mode="normal"/></filter></defs><g><rect fill="#FFFFFF" filter="url(#flrn13kigp8qt)" height="252.0352" style="stroke: #000000; stroke-width: 2.0;" width="857.5" x="18" y="106.1201"/><rect fill="#FFFFFF" filter="url(#flrn13kigp8qt)" height="135.0176" style="stroke: #000000; stroke-width: 2.0;" width="562.5" x="12" y="372.1553"/><line style="stroke: #A80036; stroke-width: 1.0; stroke-dasharray: 5.0,5.0;" x1="45" x2="45" y1="89.1201" y2="524.1729"/><line style="stroke: #A80036; stroke-width: 1.0; stroke-dasharray: 5.0,5.0;" x1="213" x2="213" y1="89.1201" y2="524.1729"/><line style="stroke: #A80036; stroke-width: 1.0; stroke-dasharray: 5.0,5.0;" x1="388.5" x2="388.5" y1="89.1201" y2="524.1729"/><line style="stroke: #A80036; stroke-width: 1.0; stroke-dasharray: 5.0,5.0;" x1="553.5" x2="553.5" y1="89.1201" y2="524.1729"/><line style="stroke: #A80036; stroke-width: 1.0; stroke-dasharray: 5.0,5.0;" x1="763.5" x2="763.5" y1="89.1201" y2="524.1729"/><text fill="#000000" font-family="sans-serif" font-size="14" lengthAdjust="spacingAndGlyphs" textLength="29" x="28" y="86.0439">User</text><ellipse cx="45.5" cy="13" fill="#FEFECE" filter="url(#flrn13kigp8qt)" rx="8" ry="8" style="stroke: #A80036; stroke-width: 2.0;"/><path d="M45.5,21 L45.5,48 M32.5,29 L58.5,29 M45.5,48 L32.5,63 M45.5,48 L58.5,63 " fill="none" filter="url(#flrn13kigp8qt)" style="stroke: #A80036; stroke-width: 2.0;"/><text fill="#000000" font-family="sans-serif" font-size="14" lengthAdjust="spacingAndGlyphs" textLength="29" x="28" y="539.2168">User</text><ellipse cx="45.5" cy="552.293" fill="#FEFECE" filter="url(#flrn13kigp8qt)" rx="8" ry="8" style="stroke: #A80036; stroke-width: 2.0;"/><path d="M45.5,560.293 L45.5,587.293 M32.5,568.293 L58.5,568.293 M45.5,587.293 L32.5,602.293 M45.5,587.293 L58.5,602.293 " fill="none" filter="url(#flrn13kigp8qt)" style="stroke: #A80036; stroke-width: 2.0;"/><text fill="#000000" font-family="sans-serif" font-size="14" lengthAdjust="spacingAndGlyphs" textLength="111" x="155" y="86.0439">CampaignService</text><path d="M193,42 L193,66 M193,54 L210,54 " fill="none" filter="url(#flrn13kigp8qt)" style="stroke: #A80036; stroke-width: 2.0;"/><ellipse cx="222" cy="54" fill="#FEFECE" filter="url(#flrn13kigp8qt)" rx="12" ry="12" style="stroke: #A80036; stroke-width: 2.0;"/><text fill="#000000" font-family="sans-serif" font-size="14" lengthAdjust="spacingAndGlyphs" textLength="111" x="155" y="539.2168">CampaignService</text><path d="M193,546.293 L193,570.293 M193,558.293 L210,558.293 " fill="none" filter="url(#flrn13kigp8qt)" style="stroke: #A80036; stroke-width: 2.0;"/><ellipse cx="222" cy="558.293" fill="#FEFECE" filter="url(#flrn13kigp8qt)" rx="12" ry="12" style="stroke: #A80036; stroke-width: 2.0;"/><rect fill="#FEFECE" filter="url(#flrn13kigp8qt)" height="33.1201" style="stroke: #A80036; stroke-width: 1.5;" width="78" x="347.5" y="51"/><text fill="#000000" font-family="sans-serif" font-size="14" lengthAdjust="spacingAndGlyphs" textLength="64" x="354.5" y="74.0439">Campaign</text><rect fill="#FEFECE" filter="url(#flrn13kigp8qt)" height="33.1201" style="stroke: #A80036; stroke-width: 1.5;" width="78" x="347.5" y="523.1729"/><text fill="#000000" font-family="sans-serif" font-size="14" lengthAdjust="spacingAndGlyphs" textLength="64" x="354.5" y="546.2168">Campaign</text><rect fill="#FEFECE" filter="url(#flrn13kigp8qt)" height="33.1201" style="stroke: #A80036; stroke-width: 1.5;" width="192" x="455.5" y="51"/><text fill="#000000" font-family="sans-serif" font-size="14" lengthAdjust="spacingAndGlyphs" textLength="178" x="462.5" y="74.0439">QulificationStrategyInterface</text><rect fill="#FEFECE" filter="url(#flrn13kigp8qt)" height="33.1201" style="stroke: #A80036; stroke-width: 1.5;" width="192" x="455.5" y="523.1729"/><text fill="#000000" font-family="sans-serif" font-size="14" lengthAdjust="spacingAndGlyphs" textLength="178" x="462.5" y="546.2168">QulificationStrategyInterface</text><rect fill="#FEFECE" filter="url(#flrn13kigp8qt)" height="33.1201" style="stroke: #A80036; stroke-width: 1.5;" width="200" x="661.5" y="51"/><text fill="#000000" font-family="sans-serif" font-size="14" lengthAdjust="spacingAndGlyphs" textLength="186" x="668.5" y="74.0439">QualificationStrategyInterface</text><rect fill="#FEFECE" filter="url(#flrn13kigp8qt)" height="33.1201" style="stroke: #A80036; stroke-width: 1.5;" width="200" x="661.5" y="523.1729"/><text fill="#000000" font-family="sans-serif" font-size="14" lengthAdjust="spacingAndGlyphs" textLength="186" x="668.5" y="546.2168">QualificationStrategyInterface</text><path d="M18,106.1201 L149,106.1201 L149,115.1201 L139,125.1201 L18,125.1201 L18,106.1201 " fill="#EEEEEE" style="stroke: #000000; stroke-width: 1.0;"/><rect fill="none" height="252.0352" style="stroke: #000000; stroke-width: 2.0;" width="857.5" x="18" y="106.1201"/><text fill="#000000" font-family="sans-serif" font-size="13" font-weight="bold" lengthAdjust="spacingAndGlyphs" textLength="86" x="33" y="122.0181">Uses Strategy</text><polygon fill="#A80036" points="201.5,145.6289,211.5,149.6289,201.5,153.6289,205.5,149.6289" style="stroke: #A80036; stroke-width: 1.0;"/><line style="stroke: #A80036; stroke-width: 1.0;" x1="45.5" x2="207.5" y1="149.6289" y2="149.6289"/><text fill="#000000" font-family="sans-serif" font-size="13" lengthAdjust="spacingAndGlyphs" textLength="144" x="52.5" y="144.7725">IsQualified(OrderInfo info)</text><polygon fill="#A80036" points="376.5,177.3833,386.5,181.3833,376.5,185.3833,380.5,181.3833" style="stroke: #A80036; stroke-width: 1.0;"/><line style="stroke: #A80036; stroke-width: 1.0;" x1="213.5" x2="382.5" y1="181.3833" y2="181.3833"/><text fill="#000000" font-family="sans-serif" font-size="13" lengthAdjust="spacingAndGlyphs" textLength="141" x="220.5" y="176.5269">Isqualified(OrderInfo info)</text><polygon fill="#A80036" points="541.5,209.1377,551.5,213.1377,541.5,217.1377,545.5,213.1377" style="stroke: #A80036; stroke-width: 1.0;"/><line style="stroke: #A80036; stroke-width: 1.0;" x1="388.5" x2="547.5" y1="213.1377" y2="213.1377"/><text fill="#000000" font-family="sans-serif" font-size="13" lengthAdjust="spacingAndGlyphs" textLength="141" x="395.5" y="208.2813">Isqualified(OrderInfo info)</text><polygon fill="#A80036" points="399.5,240.8921,389.5,244.8921,399.5,248.8921,395.5,244.8921" style="stroke: #A80036; stroke-width: 1.0;"/><line style="stroke: #A80036; stroke-width: 1.0; stroke-dasharray: 2.0,2.0;" x1="393.5" x2="762.5" y1="244.8921" y2="244.8921"/><text fill="#000000" font-family="sans-serif" font-size="13" lengthAdjust="spacingAndGlyphs" textLength="68" x="405.5" y="240.0356">True | False</text><polygon fill="#A80036" points="224.5,272.6465,214.5,276.6465,224.5,280.6465,220.5,276.6465" style="stroke: #A80036; stroke-width: 1.0;"/><line style="stroke: #A80036; stroke-width: 1.0; stroke-dasharray: 2.0,2.0;" x1="218.5" x2="387.5" y1="276.6465" y2="276.6465"/><text fill="#000000" font-family="sans-serif" font-size="13" lengthAdjust="spacingAndGlyphs" textLength="68" x="230.5" y="271.79">True | False</text><polygon fill="#A80036" points="56.5,304.4009,46.5,308.4009,56.5,312.4009,52.5,308.4009" style="stroke: #A80036; stroke-width: 1.0;"/><line style="stroke: #A80036; stroke-width: 1.0; stroke-dasharray: 2.0,2.0;" x1="50.5" x2="212.5" y1="308.4009" y2="308.4009"/><text fill="#000000" font-family="sans-serif" font-size="13" lengthAdjust="spacingAndGlyphs" textLength="68" x="62.5" y="303.5444">True | False</text><path d="M126,321.4009 L126,348.4009 L646,348.4009 L646,331.4009 L636,321.4009 L126,321.4009 " fill="#FBFB77" filter="url(#flrn13kigp8qt)" style="stroke: #A80036; stroke-width: 1.0;"/><path d="M636,321.4009 L636,331.4009 L646,331.4009 L636,321.4009 " fill="#FBFB77" style="stroke: #A80036; stroke-width: 1.0;"/><text fill="#000000" font-family="sans-serif" font-size="13" lengthAdjust="spacingAndGlyphs" textLength="499" x="132" y="341.2988">The `Calculate` method shares the similiar sequence but call the `PricePolicyStrategy`</text><path d="M12,372.1553 L162,372.1553 L162,381.1553 L152,391.1553 L12,391.1553 L12,372.1553 " fill="#EEEEEE" style="stroke: #000000; stroke-width: 1.0;"/><rect fill="none" height="135.0176" style="stroke: #000000; stroke-width: 2.0;" width="562.5" x="12" y="372.1553"/><text fill="#000000" font-family="sans-serif" font-size="13" font-weight="bold" lengthAdjust="spacingAndGlyphs" textLength="105" x="27" y="388.0532">Campaign CRUD</text><polygon fill="#A80036" points="201.5,416.6641,211.5,420.6641,201.5,424.6641,205.5,420.6641" style="stroke: #A80036; stroke-width: 1.0;"/><line style="stroke: #A80036; stroke-width: 1.0;" x1="45.5" x2="207.5" y1="420.6641" y2="420.6641"/><text fill="#000000" font-family="sans-serif" font-size="13" lengthAdjust="spacingAndGlyphs" textLength="102" x="52.5" y="415.8076">create(array data)</text><path d="M218,396.9097 L218,423.9097 L555,423.9097 L555,406.9097 L545,396.9097 L218,396.9097 " fill="#FBFB77" filter="url(#flrn13kigp8qt)" style="stroke: #A80036; stroke-width: 1.0;"/><path d="M545,396.9097 L545,406.9097 L555,406.9097 L545,396.9097 " fill="#FBFB77" style="stroke: #A80036; stroke-width: 1.0;"/><text fill="#000000" font-family="sans-serif" font-size="13" lengthAdjust="spacingAndGlyphs" textLength="316" x="224" y="416.8076">throws IllegalArgumentException upon validation failure</text><polygon fill="#A80036" points="376.5,453.4185,386.5,457.4185,376.5,461.4185,380.5,457.4185" style="stroke: #A80036; stroke-width: 1.0;"/><line style="stroke: #A80036; stroke-width: 1.0;" x1="213.5" x2="382.5" y1="457.4185" y2="457.4185"/><text fill="#000000" font-family="sans-serif" font-size="13" lengthAdjust="spacingAndGlyphs" textLength="151" x="220.5" y="452.562">createInstance(array data)</text><path d="M22,470.4185 L22,497.4185 L400,497.4185 L400,480.4185 L390,470.4185 L22,470.4185 " fill="#FBFB77" filter="url(#flrn13kigp8qt)" style="stroke: #A80036; stroke-width: 1.0;"/><path d="M390,470.4185 L390,480.4185 L400,480.4185 L390,470.4185 " fill="#FBFB77" style="stroke: #A80036; stroke-width: 1.0;"/><text fill="#000000" font-family="sans-serif" font-size="13" lengthAdjust="spacingAndGlyphs" textLength="357" x="28" y="490.3164">`Update`, `Delete` and `FindById` shares the similar sequence</text><!--
@startuml campaign-sequence
actor User
boundary CampaignService

group Uses Strategy
    User -> CampaignService: IsQualified(OrderInfo info)
    CampaignService -> Campaign: Isqualified(OrderInfo info)
    Campaign -> QulificationStrategyInterface: Isqualified(OrderInfo info)
    QualificationStrategyInterface - -> Campaign: True | False
    Campaign - -> CampaignService: True | False
    CampaignService - -> User: True | False 
    note over Campaign : The `Calculate` method shares the similiar sequence but call the `PricePolicyStrategy`
end

group Campaign CRUD
    User -> CampaignService: create(array data)
    note right: throws IllegalArgumentException upon validation failure
    CampaignService -> Campaign: createInstance(array data)
    note over CampaignService: `Update`, `Delete` and `FindById` shares the similar sequence
end


@enduml

PlantUML version 1.2019.09(Tue Aug 27 00:19:51 CST 2019)
(GPL source distribution)
Java Runtime: Java(TM) SE Runtime Environment
JVM: Java HotSpot(TM) 64-Bit Server VM
Java Version: 11.0.5+10-LTS
Operating System: Windows 7
OS Version: 6.1
Default Encoding: GBK
Language: zh
Country: CN
--></g></svg>