<?xml version="1.0" encoding="UTF-8" standalone="no"?><svg xmlns="http://www.w3.org/2000/svg" xmlns:xlink="http://www.w3.org/1999/xlink" contentScriptType="application/ecmascript" contentStyleType="text/css" height="436px" preserveAspectRatio="none" style="width:938px;height:436px;" version="1.1" viewBox="0 0 938 436" width="938px" zoomAndPan="magnify"><defs><filter height="300%" id="f14qco2tlfb20c" width="300%" x="-1" y="-1"><feGaussianBlur result="blurOut" stdDeviation="2.0"/><feColorMatrix in="blurOut" result="blurOut2" type="matrix" values="0 0 0 0 0 0 0 0 0 0 0 0 0 0 0 0 0 0 .4 0"/><feOffset dx="4.0" dy="4.0" in="blurOut2" result="blurOut3"/><feBlend in="SourceGraphic" in2="blurOut3" mode="normal"/></filter></defs><g><!--class OrderInfoInterface--><rect fill="#FEFECE" filter="url(#f14qco2tlfb20c)" height="93.0688" id="OrderInfoInterface" style="stroke: #A80036; stroke-width: 1.5;" width="132" x="65" y="66"/><ellipse cx="80" cy="82" fill="#B4A7E5" rx="11" ry="11" style="stroke: #A80036; stroke-width: 1.0;"/><path d="M76.5938,76.2813 L76.5938,75.1875 L82.5938,75.1875 L82.5938,76.2813 L80.7188,76.2813 Q80.5781,76.2813 80.5156,76.3281 Q80.4688,76.3594 80.4688,76.4688 L80.4688,85.9531 Q80.4688,86.0625 80.5156,86.1094 Q80.5781,86.1406 80.7188,86.1406 L82.5938,86.1406 L82.5938,87.2344 L76.5938,87.2344 L76.5938,86.1406 L78.4688,86.1406 Q78.6563,86.1406 78.6875,86.1094 Q78.7188,86.0781 78.7188,85.9531 L78.7188,76.4688 Q78.7188,76.3438 78.6875,76.3125 Q78.6563,76.2813 78.4688,76.2813 L76.5938,76.2813 Z "/><text fill="#000000" font-family="sans-serif" font-size="12" font-style="italic" lengthAdjust="spacingAndGlyphs" textLength="100" x="94" y="87.5576">OrderInfoInterface</text><line style="stroke: #A80036; stroke-width: 1.5;" x1="66" x2="196" y1="98" y2="98"/><line style="stroke: #A80036; stroke-width: 1.5;" x1="66" x2="196" y1="106" y2="106"/><ellipse cx="76" cy="117" fill="#84BE84" rx="3" ry="3" style="stroke: #038048; stroke-width: 1.0;"/><text fill="#000000" font-family="sans-serif" font-size="11" lengthAdjust="spacingAndGlyphs" textLength="72" x="85" y="122.606">getUser():User</text><ellipse cx="76" cy="132.0229" fill="#84BE84" rx="3" ry="3" style="stroke: #038048; stroke-width: 1.0;"/><text fill="#000000" font-family="sans-serif" font-size="11" lengthAdjust="spacingAndGlyphs" textLength="85" x="85" y="137.6289">getOrderItems():[]</text><ellipse cx="76" cy="147.0459" fill="#84BE84" rx="3" ry="3" style="stroke: #038048; stroke-width: 1.0;"/><text fill="#000000" font-family="sans-serif" font-size="11" lengthAdjust="spacingAndGlyphs" textLength="78" x="85" y="152.6519">getPayTotal():int</text><!--class OrderInfoVo--><rect fill="#FEFECE" filter="url(#f14qco2tlfb20c)" height="103.8462" id="OrderInfoVo" style="stroke: #A80036; stroke-width: 1.5;" width="250" x="6" y="299.5"/><ellipse cx="86.25" cy="320.8887" fill="#ADD1B2" rx="11" ry="11" style="stroke: #A80036; stroke-width: 1.0;"/><path d="M85.1719,326.248 Q83.1406,326.248 81.9531,324.748 Q80.7813,323.248 80.7813,320.1387 Q80.7813,317.498 82.0313,315.7324 Q83.2813,313.9512 85.4375,313.9512 Q85.9688,313.9512 86.4375,314.123 Q86.9063,314.2793 87.1719,314.2793 Q87.3594,314.2793 87.4531,314.248 Q87.5469,314.2012 88.0938,313.4824 L88.9063,317.4512 L87.8594,317.7637 Q87.4063,316.2637 86.8125,315.6855 Q86.2344,315.0918 85.3125,315.0918 Q84.1406,315.0918 83.4375,316.498 Q82.7344,317.8887 82.7344,320.0605 Q82.7344,322.4512 83.3281,323.7168 Q83.9375,324.9668 85.25,324.9668 Q86.1719,324.9668 86.8438,324.2949 Q87.5156,323.6074 87.8438,322.0293 L88.8906,322.5293 Q88.4844,324.2949 87.5,325.2793 Q86.5156,326.248 85.1719,326.248 Z "/><text fill="#000000" font-family="sans-serif" font-size="12" font-style="italic" lengthAdjust="spacingAndGlyphs" textLength="85" x="104.75" y="318.252">«Value Object»</text><text fill="#000000" font-family="sans-serif" font-size="12" lengthAdjust="spacingAndGlyphs" textLength="65" x="114.75" y="334.6406">OrderInfoVo</text><line style="stroke: #A80036; stroke-width: 1.5;" x1="7" x2="255" y1="342.2773" y2="342.2773"/><rect fill="none" height="6" style="stroke: #C82930; stroke-width: 1.0;" width="6" x="14" y="350.2773"/><text fill="#000000" font-family="sans-serif" font-size="11" lengthAdjust="spacingAndGlyphs" textLength="51" x="26" y="358.8833">user: User</text><rect fill="none" height="6" style="stroke: #C82930; stroke-width: 1.0;" width="6" x="14" y="365.3003"/><text fill="#000000" font-family="sans-serif" font-size="11" lengthAdjust="spacingAndGlyphs" textLength="75" x="26" y="373.9063">products: array</text><line style="stroke: #A80036; stroke-width: 1.5;" x1="7" x2="255" y1="380.3232" y2="380.3232"/><ellipse cx="17" cy="391.3232" fill="#84BE84" rx="3" ry="3" style="stroke: #038048; stroke-width: 1.0;"/><text fill="#000000" font-family="sans-serif" font-size="11" lengthAdjust="spacingAndGlyphs" textLength="224" x="26" y="396.9292">__construct(array order_items = [], User user)</text><!--class OrderServiceInterface--><rect fill="#FEFECE" filter="url(#f14qco2tlfb20c)" height="108.0918" id="OrderServiceInterface" style="stroke: #A80036; stroke-width: 1.5;" width="193" x="246.5" y="58.5"/><ellipse cx="279.95" cy="74.5" fill="#B4A7E5" rx="11" ry="11" style="stroke: #A80036; stroke-width: 1.0;"/><path d="M276.5438,68.7813 L276.5438,67.6875 L282.5438,67.6875 L282.5438,68.7813 L280.6688,68.7813 Q280.5281,68.7813 280.4656,68.8281 Q280.4188,68.8594 280.4188,68.9688 L280.4188,78.4531 Q280.4188,78.5625 280.4656,78.6094 Q280.5281,78.6406 280.6688,78.6406 L282.5438,78.6406 L282.5438,79.7344 L276.5438,79.7344 L276.5438,78.6406 L278.4188,78.6406 Q278.6063,78.6406 278.6375,78.6094 Q278.6688,78.5781 278.6688,78.4531 L278.6688,68.9688 Q278.6688,68.8438 278.6375,68.8125 Q278.6063,68.7813 278.4188,68.7813 L276.5438,68.7813 Z "/><text fill="#000000" font-family="sans-serif" font-size="12" font-style="italic" lengthAdjust="spacingAndGlyphs" textLength="120" x="298.05" y="80.0576">OrderServiceInterface</text><line style="stroke: #A80036; stroke-width: 1.5;" x1="247.5" x2="438.5" y1="90.5" y2="90.5"/><line style="stroke: #A80036; stroke-width: 1.5;" x1="247.5" x2="438.5" y1="98.5" y2="98.5"/><ellipse cx="257.5" cy="109.5" fill="#84BE84" rx="3" ry="3" style="stroke: #038048; stroke-width: 1.0;"/><text fill="#000000" font-family="sans-serif" font-size="11" lengthAdjust="spacingAndGlyphs" textLength="131" x="266.5" y="115.106">makeOrder(array info):void</text><ellipse cx="257.5" cy="124.5229" fill="#84BE84" rx="3" ry="3" style="stroke: #038048; stroke-width: 1.0;"/><text fill="#000000" font-family="sans-serif" font-size="11" lengthAdjust="spacingAndGlyphs" textLength="167" x="266.5" y="130.1289">getMyOrders(int userId): Collection</text><ellipse cx="257.5" cy="139.5459" fill="#84BE84" rx="3" ry="3" style="stroke: #038048; stroke-width: 1.0;"/><text fill="#000000" font-family="sans-serif" font-size="11" lengthAdjust="spacingAndGlyphs" textLength="135" x="266.5" y="145.1519">repayOrder(int orderId):void</text><ellipse cx="257.5" cy="154.5688" fill="#84BE84" rx="3" ry="3" style="stroke: #038048; stroke-width: 1.0;"/><text fill="#000000" font-family="sans-serif" font-size="11" lengthAdjust="spacingAndGlyphs" textLength="117" x="266.5" y="160.1748">postPay(array info):void</text><!--class OrmModel--><rect fill="#FEFECE" filter="url(#f14qco2tlfb20c)" height="108.0918" id="OrmModel" style="stroke: #A80036; stroke-width: 1.5;" width="146" x="475" y="58.5"/><ellipse cx="515.65" cy="74.5" fill="#A9DCDF" rx="11" ry="11" style="stroke: #A80036; stroke-width: 1.0;"/><path d="M516.0875,74.4844 L513.65,74.4844 L513.1188,76.7344 Q513.0094,77.25 513.0719,77.4531 Q513.15,77.6406 513.3844,77.6406 L513.9313,77.6406 L513.9313,78.7344 L510.7906,78.7344 L510.7906,77.6406 L511.3219,77.6406 Q511.4625,77.6406 511.5719,77.5625 Q511.6813,77.4688 511.7125,77.2031 L514.3688,66.8281 L515.9,66.3281 L518.4938,77.1719 Q518.6031,77.4531 518.7125,77.5469 Q518.8219,77.6406 518.9625,77.6406 L519.5094,77.6406 L519.5094,78.7344 L515.9625,78.7344 L515.9625,77.6406 L516.5719,77.6406 Q516.7438,77.6406 516.775,77.5781 Q516.8063,77.5 516.7125,77.1406 L516.0875,74.4844 Z M514.9156,68.3125 L514.9781,68.3125 L513.9625,73.3906 L515.8688,73.3906 L514.9156,68.3125 Z "/><text fill="#000000" font-family="sans-serif" font-size="12" font-style="italic" lengthAdjust="spacingAndGlyphs" textLength="57" x="535.35" y="80.0576">OrmModel</text><line style="stroke: #A80036; stroke-width: 1.5;" x1="476" x2="620" y1="90.5" y2="90.5"/><line style="stroke: #A80036; stroke-width: 1.5;" x1="476" x2="620" y1="98.5" y2="98.5"/><ellipse cx="486" cy="109.5" fill="#84BE84" rx="3" ry="3" style="stroke: #038048; stroke-width: 1.0;"/><text fill="#000000" font-family="sans-serif" font-size="11" lengthAdjust="spacingAndGlyphs" textLength="103" x="495" y="115.106">createInstance():void</text><ellipse cx="486" cy="124.5229" fill="#84BE84" rx="3" ry="3" style="stroke: #038048; stroke-width: 1.0;"/><text fill="#000000" font-family="sans-serif" font-size="11" lengthAdjust="spacingAndGlyphs" textLength="105" x="495" y="130.1289">updateInstance():void</text><ellipse cx="486" cy="139.5459" fill="#84BE84" rx="3" ry="3" style="stroke: #038048; stroke-width: 1.0;"/><text fill="#000000" font-family="sans-serif" font-size="11" lengthAdjust="spacingAndGlyphs" textLength="120" x="495" y="145.1519">findById(int id):OrmModel</text><ellipse cx="486" cy="154.5688" fill="#84BE84" rx="3" ry="3" style="stroke: #038048; stroke-width: 1.0;"/><text fill="#000000" font-family="sans-serif" font-size="11" lengthAdjust="spacingAndGlyphs" textLength="82" x="495" y="160.1748">delete(int id):void</text><!--class Order--><rect fill="#FEFECE" filter="url(#f14qco2tlfb20c)" height="209.0068" id="Order" style="stroke: #A80036; stroke-width: 1.5;" width="137" x="656.5" y="8"/><ellipse cx="688.6" cy="29.3887" fill="#ADD1B2" rx="11" ry="11" style="stroke: #A80036; stroke-width: 1.0;"/><path d="M687.5219,34.748 Q685.4906,34.748 684.3031,33.248 Q683.1313,31.748 683.1313,28.6387 Q683.1313,25.998 684.3813,24.2324 Q685.6313,22.4512 687.7875,22.4512 Q688.3188,22.4512 688.7875,22.623 Q689.2563,22.7793 689.5219,22.7793 Q689.7094,22.7793 689.8031,22.748 Q689.8969,22.7012 690.4438,21.9824 L691.2563,25.9512 L690.2094,26.2637 Q689.7563,24.7637 689.1625,24.1855 Q688.5844,23.5918 687.6625,23.5918 Q686.4906,23.5918 685.7875,24.998 Q685.0844,26.3887 685.0844,28.5605 Q685.0844,30.9512 685.6781,32.2168 Q686.2875,33.4668 687.6,33.4668 Q688.5219,33.4668 689.1938,32.7949 Q689.8656,32.1074 690.1938,30.5293 L691.2406,31.0293 Q690.8344,32.7949 689.85,33.7793 Q688.8656,34.748 687.5219,34.748 Z "/><text fill="#000000" font-family="sans-serif" font-size="12" font-style="italic" lengthAdjust="spacingAndGlyphs" textLength="71" x="704.4" y="26.752">«OrmModel»</text><text fill="#000000" font-family="sans-serif" font-size="12" lengthAdjust="spacingAndGlyphs" textLength="31" x="724.4" y="43.1406">Order</text><line style="stroke: #A80036; stroke-width: 1.5;" x1="657.5" x2="792.5" y1="50.7773" y2="50.7773"/><rect fill="none" height="6" style="stroke: #C82930; stroke-width: 1.0;" width="6" x="664.5" y="58.7773"/><text fill="#000000" font-family="sans-serif" font-size="11" lengthAdjust="spacingAndGlyphs" textLength="68" x="676.5" y="67.3833">order_number</text><rect fill="none" height="6" style="stroke: #C82930; stroke-width: 1.0;" width="6" x="664.5" y="73.8003"/><text fill="#000000" font-family="sans-serif" font-size="11" lengthAdjust="spacingAndGlyphs" textLength="80" x="676.5" y="82.4063">exorder_number</text><rect fill="none" height="6" style="stroke: #C82930; stroke-width: 1.0;" width="6" x="664.5" y="88.8232"/><text fill="#000000" font-family="sans-serif" font-size="11" lengthAdjust="spacingAndGlyphs" textLength="59" x="676.5" y="97.4292">pay_amount</text><rect fill="none" height="6" style="stroke: #C82930; stroke-width: 1.0;" width="6" x="664.5" y="103.8462"/><text fill="#000000" font-family="sans-serif" font-size="11" lengthAdjust="spacingAndGlyphs" textLength="54" x="676.5" y="112.4521">pay_status</text><rect fill="none" height="6" style="stroke: #C82930; stroke-width: 1.0;" width="6" x="664.5" y="118.8691"/><text fill="#000000" font-family="sans-serif" font-size="11" lengthAdjust="spacingAndGlyphs" textLength="59" x="676.5" y="127.4751">pay_method</text><rect fill="none" height="6" style="stroke: #C82930; stroke-width: 1.0;" width="6" x="664.5" y="133.8921"/><text fill="#000000" font-family="sans-serif" font-size="11" lengthAdjust="spacingAndGlyphs" textLength="43" x="676.5" y="142.498">pay_time</text><rect fill="none" height="6" style="stroke: #C82930; stroke-width: 1.0;" width="6" x="664.5" y="148.915"/><text fill="#000000" font-family="sans-serif" font-size="11" lengthAdjust="spacingAndGlyphs" textLength="36" x="676.5" y="157.521">user_id</text><rect fill="none" height="6" style="stroke: #C82930; stroke-width: 1.0;" width="6" x="664.5" y="163.938"/><text fill="#000000" font-family="sans-serif" font-size="11" lengthAdjust="spacingAndGlyphs" textLength="38" x="676.5" y="172.5439">shop_id</text><line style="stroke: #A80036; stroke-width: 1.5;" x1="657.5" x2="792.5" y1="178.9609" y2="178.9609"/><ellipse cx="667.5" cy="189.9609" fill="#84BE84" rx="3" ry="3" style="stroke: #038048; stroke-width: 1.0;"/><text fill="#000000" font-family="sans-serif" font-size="11" lengthAdjust="spacingAndGlyphs" textLength="63" x="676.5" y="195.5669">shop(): Shop</text><ellipse cx="667.5" cy="204.9839" fill="#84BE84" rx="3" ry="3" style="stroke: #038048; stroke-width: 1.0;"/><text fill="#000000" font-family="sans-serif" font-size="11" lengthAdjust="spacingAndGlyphs" textLength="111" x="676.5" y="210.5898">orderItems(): Collection</text><!--class OrderItem--><rect fill="#FEFECE" filter="url(#f14qco2tlfb20c)" height="148.915" id="OrderItem" style="stroke: #A80036; stroke-width: 1.5;" width="99" x="675.5" y="277"/><ellipse cx="690.5" cy="298.3887" fill="#ADD1B2" rx="11" ry="11" style="stroke: #A80036; stroke-width: 1.0;"/><path d="M689.4219,303.748 Q687.3906,303.748 686.2031,302.248 Q685.0313,300.748 685.0313,297.6387 Q685.0313,294.998 686.2813,293.2324 Q687.5313,291.4512 689.6875,291.4512 Q690.2188,291.4512 690.6875,291.623 Q691.1563,291.7793 691.4219,291.7793 Q691.6094,291.7793 691.7031,291.748 Q691.7969,291.7012 692.3438,290.9824 L693.1563,294.9512 L692.1094,295.2637 Q691.6563,293.7637 691.0625,293.1855 Q690.4844,292.5918 689.5625,292.5918 Q688.3906,292.5918 687.6875,293.998 Q686.9844,295.3887 686.9844,297.5605 Q686.9844,299.9512 687.5781,301.2168 Q688.1875,302.4668 689.5,302.4668 Q690.4219,302.4668 691.0938,301.7949 Q691.7656,301.1074 692.0938,299.5293 L693.1406,300.0293 Q692.7344,301.7949 691.75,302.7793 Q690.7656,303.748 689.4219,303.748 Z "/><text fill="#000000" font-family="sans-serif" font-size="12" font-style="italic" lengthAdjust="spacingAndGlyphs" textLength="71" x="702.5" y="295.752">«OrmModel»</text><text fill="#000000" font-family="sans-serif" font-size="12" lengthAdjust="spacingAndGlyphs" textLength="55" x="710.5" y="312.1406">OrderItem</text><line style="stroke: #A80036; stroke-width: 1.5;" x1="676.5" x2="773.5" y1="319.7773" y2="319.7773"/><rect fill="none" height="6" style="stroke: #C82930; stroke-width: 1.0;" width="6" x="683.5" y="327.7773"/><text fill="#000000" font-family="sans-serif" font-size="11" lengthAdjust="spacingAndGlyphs" textLength="45" x="695.5" y="336.3833">thumbnail</text><rect fill="none" height="6" style="stroke: #C82930; stroke-width: 1.0;" width="6" x="683.5" y="342.8003"/><text fill="#000000" font-family="sans-serif" font-size="11" lengthAdjust="spacingAndGlyphs" textLength="16" x="695.5" y="351.4063">title</text><rect fill="none" height="6" style="stroke: #C82930; stroke-width: 1.0;" width="6" x="683.5" y="357.8232"/><text fill="#000000" font-family="sans-serif" font-size="11" lengthAdjust="spacingAndGlyphs" textLength="18" x="695.5" y="366.4292">info</text><rect fill="none" height="6" style="stroke: #C82930; stroke-width: 1.0;" width="6" x="683.5" y="372.8462"/><text fill="#000000" font-family="sans-serif" font-size="11" lengthAdjust="spacingAndGlyphs" textLength="35" x="695.5" y="381.4521">amount</text><rect fill="none" height="6" style="stroke: #C82930; stroke-width: 1.0;" width="6" x="683.5" y="387.8691"/><text fill="#000000" font-family="sans-serif" font-size="11" lengthAdjust="spacingAndGlyphs" textLength="47" x="695.5" y="396.4751">unit_price</text><rect fill="none" height="6" style="stroke: #C82930; stroke-width: 1.0;" width="6" x="683.5" y="402.8921"/><text fill="#000000" font-family="sans-serif" font-size="11" lengthAdjust="spacingAndGlyphs" textLength="59" x="695.5" y="411.498">pay_amount</text><line style="stroke: #A80036; stroke-width: 1.5;" x1="676.5" x2="773.5" y1="417.915" y2="417.915"/><!--class CartItem--><rect fill="#FEFECE" filter="url(#f14qco2tlfb20c)" height="118.8691" id="CartItem" style="stroke: #A80036; stroke-width: 1.5;" width="99" x="828.5" y="53"/><ellipse cx="843.5" cy="74.3887" fill="#ADD1B2" rx="11" ry="11" style="stroke: #A80036; stroke-width: 1.0;"/><path d="M842.4219,79.748 Q840.3906,79.748 839.2031,78.248 Q838.0313,76.748 838.0313,73.6387 Q838.0313,70.998 839.2813,69.2324 Q840.5313,67.4512 842.6875,67.4512 Q843.2188,67.4512 843.6875,67.623 Q844.1563,67.7793 844.4219,67.7793 Q844.6094,67.7793 844.7031,67.748 Q844.7969,67.7012 845.3438,66.9824 L846.1563,70.9512 L845.1094,71.2637 Q844.6563,69.7637 844.0625,69.1855 Q843.4844,68.5918 842.5625,68.5918 Q841.3906,68.5918 840.6875,69.998 Q839.9844,71.3887 839.9844,73.5605 Q839.9844,75.9512 840.5781,77.2168 Q841.1875,78.4668 842.5,78.4668 Q843.4219,78.4668 844.0938,77.7949 Q844.7656,77.1074 845.0938,75.5293 L846.1406,76.0293 Q845.7344,77.7949 844.75,78.7793 Q843.7656,79.748 842.4219,79.748 Z "/><text fill="#000000" font-family="sans-serif" font-size="12" font-style="italic" lengthAdjust="spacingAndGlyphs" textLength="71" x="855.5" y="71.752">«OrmModel»</text><text fill="#000000" font-family="sans-serif" font-size="12" lengthAdjust="spacingAndGlyphs" textLength="47" x="867.5" y="88.1406">CartItem</text><line style="stroke: #A80036; stroke-width: 1.5;" x1="829.5" x2="926.5" y1="95.7773" y2="95.7773"/><rect fill="none" height="6" style="stroke: #C82930; stroke-width: 1.0;" width="6" x="836.5" y="103.7773"/><text fill="#000000" font-family="sans-serif" font-size="11" lengthAdjust="spacingAndGlyphs" textLength="36" x="848.5" y="112.3833">user_id</text><rect fill="none" height="6" style="stroke: #C82930; stroke-width: 1.0;" width="6" x="836.5" y="118.8003"/><text fill="#000000" font-family="sans-serif" font-size="11" lengthAdjust="spacingAndGlyphs" textLength="38" x="848.5" y="127.4063">shop_id</text><rect fill="none" height="6" style="stroke: #C82930; stroke-width: 1.0;" width="6" x="836.5" y="133.8232"/><text fill="#000000" font-family="sans-serif" font-size="11" lengthAdjust="spacingAndGlyphs" textLength="51" x="848.5" y="142.4292">product_id</text><rect fill="none" height="6" style="stroke: #C82930; stroke-width: 1.0;" width="6" x="836.5" y="148.8462"/><text fill="#000000" font-family="sans-serif" font-size="11" lengthAdjust="spacingAndGlyphs" textLength="35" x="848.5" y="157.4521">amount</text><line style="stroke: #A80036; stroke-width: 1.5;" x1="829.5" x2="926.5" y1="163.8691" y2="163.8691"/><!--class OrderService--><rect fill="#FEFECE" filter="url(#f14qco2tlfb20c)" height="48" id="OrderService" style="stroke: #A80036; stroke-width: 1.5;" width="103" x="291.5" y="327.5"/><ellipse cx="306.5" cy="343.5" fill="#ADD1B2" rx="11" ry="11" style="stroke: #A80036; stroke-width: 1.0;"/><path d="M305.4219,348.8594 Q303.3906,348.8594 302.2031,347.3594 Q301.0313,345.8594 301.0313,342.75 Q301.0313,340.1094 302.2813,338.3438 Q303.5313,336.5625 305.6875,336.5625 Q306.2188,336.5625 306.6875,336.7344 Q307.1563,336.8906 307.4219,336.8906 Q307.6094,336.8906 307.7031,336.8594 Q307.7969,336.8125 308.3438,336.0938 L309.1563,340.0625 L308.1094,340.375 Q307.6563,338.875 307.0625,338.2969 Q306.4844,337.7031 305.5625,337.7031 Q304.3906,337.7031 303.6875,339.1094 Q302.9844,340.5 302.9844,342.6719 Q302.9844,345.0625 303.5781,346.3281 Q304.1875,347.5781 305.5,347.5781 Q306.4219,347.5781 307.0938,346.9063 Q307.7656,346.2188 308.0938,344.6406 L309.1406,345.1406 Q308.7344,346.9063 307.75,347.8906 Q306.7656,348.8594 305.4219,348.8594 Z "/><text fill="#000000" font-family="sans-serif" font-size="12" lengthAdjust="spacingAndGlyphs" textLength="71" x="320.5" y="349.0576">OrderService</text><line style="stroke: #A80036; stroke-width: 1.5;" x1="292.5" x2="393.5" y1="359.5" y2="359.5"/><line style="stroke: #A80036; stroke-width: 1.5;" x1="292.5" x2="393.5" y1="367.5" y2="367.5"/><!--reverse link OrderServiceInterface to OrderService--><path d="M343,186.853 C343,235.06 343,294.988 343,327.2787 " fill="none" id="OrderServiceInterface&lt;-OrderService" style="stroke: #A80036; stroke-width: 1.0; stroke-dasharray: 7.0,7.0;"/><polygon fill="none" points="336,186.687,343,166.687,350,186.687,336,186.687" style="stroke: #A80036; stroke-width: 1.0;"/><!--reverse link Order to OrderItem--><path d="M725,230.326 C725,246.102 725,261.919 725,276.656 " fill="none" id="Order&lt;-OrderItem" style="stroke: #A80036; stroke-width: 1.0;"/><polygon fill="#FFFFFF" points="725,217.107,721,223.107,725,229.107,729,223.107,725,217.107" style="stroke: #A80036; stroke-width: 1.0;"/><text fill="#000000" font-family="sans-serif" font-size="13" lengthAdjust="spacingAndGlyphs" textLength="7" x="717.7539" y="239.9841">1</text><text fill="#000000" font-family="sans-serif" font-size="13" lengthAdjust="spacingAndGlyphs" textLength="32" x="691.35" y="266.0024">many</text><!--reverse link OrderInfoInterface to OrderInfoVo--><path d="M131,179.445 C131,217.29 131,264.103 131,299.184 " fill="none" id="OrderInfoInterface&lt;-OrderInfoVo" style="stroke: #A80036; stroke-width: 1.0; stroke-dasharray: 7.0,7.0;"/><polygon fill="none" points="124,179.196,131,159.196,138,179.196,124,179.196" style="stroke: #A80036; stroke-width: 1.0;"/><!--
@startuml Order-class
Interface OrderInfoInterface {
    +getUser():User
    +getOrderItems():[]
    +getPayTotal():int
}

Class OrderInfoVo <<Value Object>> {
    -user: User
    -products: array
    +__construct(array order_items = [], User user)
}

Interface OrderServiceInterface {
    +makeOrder(array info):void
    +getMyOrders(int userId): Collection
    +repayOrder(int orderId):void
    +postPay(array info):void
}


abstract OrmModel {
    +createInstance():void
    +updateInstance():void
    +findById(int id):OrmModel
    +delete(int id):void
}
class Order <<OrmModel>> {
    -order_number
    -exorder_number
    -pay_amount
    -pay_status
    -pay_method
    -pay_time
    -user_id
    -shop_id
    +shop(): Shop
    +orderItems(): Collection
}
class OrderItem <<OrmModel>> {
    -thumbnail
    -title
    -info
    -amount
    -unit_price
    -pay_amount
}
class CartItem <<OrmModel>> {
    -user_id
    -shop_id
    -product_id
    -amount
}

OrderServiceInterface <|.. OrderService
Order "1" o- - "many" OrderItem
OrderInfoInterface <|.. OrderInfoVo
@enduml

PlantUML version 1.2019.09(Tue Aug 27 00:19:51 CST 2019)
(GPL source distribution)
Java Runtime: Java(TM) SE Runtime Environment
JVM: Java HotSpot(TM) 64-Bit Server VM
Java Version: 11.0.5+10-LTS
Operating System: Windows 7
OS Version: 6.1
Default Encoding: GBK
Language: zh
Country: CN
--></g></svg>