<?xml version="1.0" encoding="UTF-8" standalone="no"?><svg xmlns="http://www.w3.org/2000/svg" xmlns:xlink="http://www.w3.org/1999/xlink" contentScriptType="application/ecmascript" contentStyleType="text/css" height="436px" preserveAspectRatio="none" style="width:698px;height:436px;" version="1.1" viewBox="0 0 698 436" width="698px" zoomAndPan="magnify"><defs><filter height="300%" id="fodu9d7bt28ue" width="300%" x="-1" y="-1"><feGaussianBlur result="blurOut" stdDeviation="2.0"/><feColorMatrix in="blurOut" result="blurOut2" type="matrix" values="0 0 0 0 0 0 0 0 0 0 0 0 0 0 0 0 0 0 .4 0"/><feOffset dx="4.0" dy="4.0" in="blurOut2" result="blurOut3"/><feBlend in="SourceGraphic" in2="blurOut3" mode="normal"/></filter></defs><g><!--class OrderServiceInterface--><rect fill="#FEFECE" filter="url(#fodu9d7bt28ue)" height="108.0918" id="OrderServiceInterface" style="stroke: #A80036; stroke-width: 1.5;" width="193" x="6" y="58.5"/><ellipse cx="39.45" cy="74.5" fill="#B4A7E5" rx="11" ry="11" style="stroke: #A80036; stroke-width: 1.0;"/><path d="M36.0438,68.7813 L36.0438,67.6875 L42.0438,67.6875 L42.0438,68.7813 L40.1688,68.7813 Q40.0281,68.7813 39.9656,68.8281 Q39.9188,68.8594 39.9188,68.9688 L39.9188,78.4531 Q39.9188,78.5625 39.9656,78.6094 Q40.0281,78.6406 40.1688,78.6406 L42.0438,78.6406 L42.0438,79.7344 L36.0438,79.7344 L36.0438,78.6406 L37.9188,78.6406 Q38.1063,78.6406 38.1375,78.6094 Q38.1688,78.5781 38.1688,78.4531 L38.1688,68.9688 Q38.1688,68.8438 38.1375,68.8125 Q38.1063,68.7813 37.9188,68.7813 L36.0438,68.7813 Z "/><text fill="#000000" font-family="sans-serif" font-size="12" font-style="italic" lengthAdjust="spacingAndGlyphs" textLength="120" x="57.55" y="80.0576">OrderServiceInterface</text><line style="stroke: #A80036; stroke-width: 1.5;" x1="7" x2="198" y1="90.5" y2="90.5"/><line style="stroke: #A80036; stroke-width: 1.5;" x1="7" x2="198" y1="98.5" y2="98.5"/><ellipse cx="17" cy="109.5" fill="#84BE84" rx="3" ry="3" style="stroke: #038048; stroke-width: 1.0;"/><text fill="#000000" font-family="sans-serif" font-size="11" lengthAdjust="spacingAndGlyphs" textLength="131" x="26" y="115.106">makeOrder(array info):void</text><ellipse cx="17" cy="124.5229" fill="#84BE84" rx="3" ry="3" style="stroke: #038048; stroke-width: 1.0;"/><text fill="#000000" font-family="sans-serif" font-size="11" lengthAdjust="spacingAndGlyphs" textLength="167" x="26" y="130.1289">getMyOrders(int userId): Collection</text><ellipse cx="17" cy="139.5459" fill="#84BE84" rx="3" ry="3" style="stroke: #038048; stroke-width: 1.0;"/><text fill="#000000" font-family="sans-serif" font-size="11" lengthAdjust="spacingAndGlyphs" textLength="137" x="26" y="145.1519">repalyOrder(int orderId):void</text><ellipse cx="17" cy="154.5688" fill="#84BE84" rx="3" ry="3" style="stroke: #038048; stroke-width: 1.0;"/><text fill="#000000" font-family="sans-serif" font-size="11" lengthAdjust="spacingAndGlyphs" textLength="128" x="26" y="160.1748">addToCart(array info):void</text><!--class OrmModel--><rect fill="#FEFECE" filter="url(#fodu9d7bt28ue)" height="108.0918" id="OrmModel" style="stroke: #A80036; stroke-width: 1.5;" width="146" x="234.5" y="58.5"/><ellipse cx="275.15" cy="74.5" fill="#A9DCDF" rx="11" ry="11" style="stroke: #A80036; stroke-width: 1.0;"/><path d="M275.5875,74.4844 L273.15,74.4844 L272.6188,76.7344 Q272.5094,77.25 272.5719,77.4531 Q272.65,77.6406 272.8844,77.6406 L273.4313,77.6406 L273.4313,78.7344 L270.2906,78.7344 L270.2906,77.6406 L270.8219,77.6406 Q270.9625,77.6406 271.0719,77.5625 Q271.1813,77.4688 271.2125,77.2031 L273.8688,66.8281 L275.4,66.3281 L277.9938,77.1719 Q278.1031,77.4531 278.2125,77.5469 Q278.3219,77.6406 278.4625,77.6406 L279.0094,77.6406 L279.0094,78.7344 L275.4625,78.7344 L275.4625,77.6406 L276.0719,77.6406 Q276.2438,77.6406 276.275,77.5781 Q276.3063,77.5 276.2125,77.1406 L275.5875,74.4844 Z M274.4156,68.3125 L274.4781,68.3125 L273.4625,73.3906 L275.3688,73.3906 L274.4156,68.3125 Z "/><text fill="#000000" font-family="sans-serif" font-size="12" font-style="italic" lengthAdjust="spacingAndGlyphs" textLength="57" x="294.85" y="80.0576">OrmModel</text><line style="stroke: #A80036; stroke-width: 1.5;" x1="235.5" x2="379.5" y1="90.5" y2="90.5"/><line style="stroke: #A80036; stroke-width: 1.5;" x1="235.5" x2="379.5" y1="98.5" y2="98.5"/><ellipse cx="245.5" cy="109.5" fill="#84BE84" rx="3" ry="3" style="stroke: #038048; stroke-width: 1.0;"/><text fill="#000000" font-family="sans-serif" font-size="11" lengthAdjust="spacingAndGlyphs" textLength="103" x="254.5" y="115.106">createInstance():void</text><ellipse cx="245.5" cy="124.5229" fill="#84BE84" rx="3" ry="3" style="stroke: #038048; stroke-width: 1.0;"/><text fill="#000000" font-family="sans-serif" font-size="11" lengthAdjust="spacingAndGlyphs" textLength="105" x="254.5" y="130.1289">updateInstance():void</text><ellipse cx="245.5" cy="139.5459" fill="#84BE84" rx="3" ry="3" style="stroke: #038048; stroke-width: 1.0;"/><text fill="#000000" font-family="sans-serif" font-size="11" lengthAdjust="spacingAndGlyphs" textLength="120" x="254.5" y="145.1519">findById(int id):OrmModel</text><ellipse cx="245.5" cy="154.5688" fill="#84BE84" rx="3" ry="3" style="stroke: #038048; stroke-width: 1.0;"/><text fill="#000000" font-family="sans-serif" font-size="11" lengthAdjust="spacingAndGlyphs" textLength="82" x="254.5" y="160.1748">delete(int id):void</text><!--class Order--><rect fill="#FEFECE" filter="url(#fodu9d7bt28ue)" height="209.0068" id="Order" style="stroke: #A80036; stroke-width: 1.5;" width="137" x="416" y="8"/><ellipse cx="448.1" cy="29.3887" fill="#ADD1B2" rx="11" ry="11" style="stroke: #A80036; stroke-width: 1.0;"/><path d="M447.0219,34.748 Q444.9906,34.748 443.8031,33.248 Q442.6313,31.748 442.6313,28.6387 Q442.6313,25.998 443.8813,24.2324 Q445.1313,22.4512 447.2875,22.4512 Q447.8188,22.4512 448.2875,22.623 Q448.7563,22.7793 449.0219,22.7793 Q449.2094,22.7793 449.3031,22.748 Q449.3969,22.7012 449.9438,21.9824 L450.7563,25.9512 L449.7094,26.2637 Q449.2563,24.7637 448.6625,24.1855 Q448.0844,23.5918 447.1625,23.5918 Q445.9906,23.5918 445.2875,24.998 Q444.5844,26.3887 444.5844,28.5605 Q444.5844,30.9512 445.1781,32.2168 Q445.7875,33.4668 447.1,33.4668 Q448.0219,33.4668 448.6938,32.7949 Q449.3656,32.1074 449.6938,30.5293 L450.7406,31.0293 Q450.3344,32.7949 449.35,33.7793 Q448.3656,34.748 447.0219,34.748 Z "/><text fill="#000000" font-family="sans-serif" font-size="12" font-style="italic" lengthAdjust="spacingAndGlyphs" textLength="71" x="463.9" y="26.752">«OrmModel»</text><text fill="#000000" font-family="sans-serif" font-size="12" lengthAdjust="spacingAndGlyphs" textLength="31" x="483.9" y="43.1406">Order</text><line style="stroke: #A80036; stroke-width: 1.5;" x1="417" x2="552" y1="50.7773" y2="50.7773"/><rect fill="none" height="6" style="stroke: #C82930; stroke-width: 1.0;" width="6" x="424" y="58.7773"/><text fill="#000000" font-family="sans-serif" font-size="11" lengthAdjust="spacingAndGlyphs" textLength="68" x="436" y="67.3833">order_number</text><rect fill="none" height="6" style="stroke: #C82930; stroke-width: 1.0;" width="6" x="424" y="73.8003"/><text fill="#000000" font-family="sans-serif" font-size="11" lengthAdjust="spacingAndGlyphs" textLength="80" x="436" y="82.4063">exorder_number</text><rect fill="none" height="6" style="stroke: #C82930; stroke-width: 1.0;" width="6" x="424" y="88.8232"/><text fill="#000000" font-family="sans-serif" font-size="11" lengthAdjust="spacingAndGlyphs" textLength="59" x="436" y="97.4292">pay_amount</text><rect fill="none" height="6" style="stroke: #C82930; stroke-width: 1.0;" width="6" x="424" y="103.8462"/><text fill="#000000" font-family="sans-serif" font-size="11" lengthAdjust="spacingAndGlyphs" textLength="54" x="436" y="112.4521">pay_status</text><rect fill="none" height="6" style="stroke: #C82930; stroke-width: 1.0;" width="6" x="424" y="118.8691"/><text fill="#000000" font-family="sans-serif" font-size="11" lengthAdjust="spacingAndGlyphs" textLength="59" x="436" y="127.4751">pay_method</text><rect fill="none" height="6" style="stroke: #C82930; stroke-width: 1.0;" width="6" x="424" y="133.8921"/><text fill="#000000" font-family="sans-serif" font-size="11" lengthAdjust="spacingAndGlyphs" textLength="43" x="436" y="142.498">pay_time</text><rect fill="none" height="6" style="stroke: #C82930; stroke-width: 1.0;" width="6" x="424" y="148.915"/><text fill="#000000" font-family="sans-serif" font-size="11" lengthAdjust="spacingAndGlyphs" textLength="36" x="436" y="157.521">user_id</text><rect fill="none" height="6" style="stroke: #C82930; stroke-width: 1.0;" width="6" x="424" y="163.938"/><text fill="#000000" font-family="sans-serif" font-size="11" lengthAdjust="spacingAndGlyphs" textLength="38" x="436" y="172.5439">shop_id</text><line style="stroke: #A80036; stroke-width: 1.5;" x1="417" x2="552" y1="178.9609" y2="178.9609"/><ellipse cx="427" cy="189.9609" fill="#84BE84" rx="3" ry="3" style="stroke: #038048; stroke-width: 1.0;"/><text fill="#000000" font-family="sans-serif" font-size="11" lengthAdjust="spacingAndGlyphs" textLength="63" x="436" y="195.5669">shop(): Shop</text><ellipse cx="427" cy="204.9839" fill="#84BE84" rx="3" ry="3" style="stroke: #038048; stroke-width: 1.0;"/><text fill="#000000" font-family="sans-serif" font-size="11" lengthAdjust="spacingAndGlyphs" textLength="111" x="436" y="210.5898">orderItems(): Collection</text><!--class OrderItem--><rect fill="#FEFECE" filter="url(#fodu9d7bt28ue)" height="148.915" id="OrderItem" style="stroke: #A80036; stroke-width: 1.5;" width="99" x="435" y="277"/><ellipse cx="450" cy="298.3887" fill="#ADD1B2" rx="11" ry="11" style="stroke: #A80036; stroke-width: 1.0;"/><path d="M448.9219,303.748 Q446.8906,303.748 445.7031,302.248 Q444.5313,300.748 444.5313,297.6387 Q444.5313,294.998 445.7813,293.2324 Q447.0313,291.4512 449.1875,291.4512 Q449.7188,291.4512 450.1875,291.623 Q450.6563,291.7793 450.9219,291.7793 Q451.1094,291.7793 451.2031,291.748 Q451.2969,291.7012 451.8438,290.9824 L452.6563,294.9512 L451.6094,295.2637 Q451.1563,293.7637 450.5625,293.1855 Q449.9844,292.5918 449.0625,292.5918 Q447.8906,292.5918 447.1875,293.998 Q446.4844,295.3887 446.4844,297.5605 Q446.4844,299.9512 447.0781,301.2168 Q447.6875,302.4668 449,302.4668 Q449.9219,302.4668 450.5938,301.7949 Q451.2656,301.1074 451.5938,299.5293 L452.6406,300.0293 Q452.2344,301.7949 451.25,302.7793 Q450.2656,303.748 448.9219,303.748 Z "/><text fill="#000000" font-family="sans-serif" font-size="12" font-style="italic" lengthAdjust="spacingAndGlyphs" textLength="71" x="462" y="295.752">«OrmModel»</text><text fill="#000000" font-family="sans-serif" font-size="12" lengthAdjust="spacingAndGlyphs" textLength="55" x="470" y="312.1406">OrderItem</text><line style="stroke: #A80036; stroke-width: 1.5;" x1="436" x2="533" y1="319.7773" y2="319.7773"/><rect fill="none" height="6" style="stroke: #C82930; stroke-width: 1.0;" width="6" x="443" y="327.7773"/><text fill="#000000" font-family="sans-serif" font-size="11" lengthAdjust="spacingAndGlyphs" textLength="45" x="455" y="336.3833">thumbnail</text><rect fill="none" height="6" style="stroke: #C82930; stroke-width: 1.0;" width="6" x="443" y="342.8003"/><text fill="#000000" font-family="sans-serif" font-size="11" lengthAdjust="spacingAndGlyphs" textLength="16" x="455" y="351.4063">title</text><rect fill="none" height="6" style="stroke: #C82930; stroke-width: 1.0;" width="6" x="443" y="357.8232"/><text fill="#000000" font-family="sans-serif" font-size="11" lengthAdjust="spacingAndGlyphs" textLength="18" x="455" y="366.4292">info</text><rect fill="none" height="6" style="stroke: #C82930; stroke-width: 1.0;" width="6" x="443" y="372.8462"/><text fill="#000000" font-family="sans-serif" font-size="11" lengthAdjust="spacingAndGlyphs" textLength="35" x="455" y="381.4521">amount</text><rect fill="none" height="6" style="stroke: #C82930; stroke-width: 1.0;" width="6" x="443" y="387.8691"/><text fill="#000000" font-family="sans-serif" font-size="11" lengthAdjust="spacingAndGlyphs" textLength="47" x="455" y="396.4751">unit_price</text><rect fill="none" height="6" style="stroke: #C82930; stroke-width: 1.0;" width="6" x="443" y="402.8921"/><text fill="#000000" font-family="sans-serif" font-size="11" lengthAdjust="spacingAndGlyphs" textLength="59" x="455" y="411.498">pay_amount</text><line style="stroke: #A80036; stroke-width: 1.5;" x1="436" x2="533" y1="417.915" y2="417.915"/><!--class CartItem--><rect fill="#FEFECE" filter="url(#fodu9d7bt28ue)" height="118.8691" id="CartItem" style="stroke: #A80036; stroke-width: 1.5;" width="99" x="588" y="53"/><ellipse cx="603" cy="74.3887" fill="#ADD1B2" rx="11" ry="11" style="stroke: #A80036; stroke-width: 1.0;"/><path d="M601.9219,79.748 Q599.8906,79.748 598.7031,78.248 Q597.5313,76.748 597.5313,73.6387 Q597.5313,70.998 598.7813,69.2324 Q600.0313,67.4512 602.1875,67.4512 Q602.7188,67.4512 603.1875,67.623 Q603.6563,67.7793 603.9219,67.7793 Q604.1094,67.7793 604.2031,67.748 Q604.2969,67.7012 604.8438,66.9824 L605.6563,70.9512 L604.6094,71.2637 Q604.1563,69.7637 603.5625,69.1855 Q602.9844,68.5918 602.0625,68.5918 Q600.8906,68.5918 600.1875,69.998 Q599.4844,71.3887 599.4844,73.5605 Q599.4844,75.9512 600.0781,77.2168 Q600.6875,78.4668 602,78.4668 Q602.9219,78.4668 603.5938,77.7949 Q604.2656,77.1074 604.5938,75.5293 L605.6406,76.0293 Q605.2344,77.7949 604.25,78.7793 Q603.2656,79.748 601.9219,79.748 Z "/><text fill="#000000" font-family="sans-serif" font-size="12" font-style="italic" lengthAdjust="spacingAndGlyphs" textLength="71" x="615" y="71.752">«OrmModel»</text><text fill="#000000" font-family="sans-serif" font-size="12" lengthAdjust="spacingAndGlyphs" textLength="47" x="627" y="88.1406">CartItem</text><line style="stroke: #A80036; stroke-width: 1.5;" x1="589" x2="686" y1="95.7773" y2="95.7773"/><rect fill="none" height="6" style="stroke: #C82930; stroke-width: 1.0;" width="6" x="596" y="103.7773"/><text fill="#000000" font-family="sans-serif" font-size="11" lengthAdjust="spacingAndGlyphs" textLength="36" x="608" y="112.3833">user_id</text><rect fill="none" height="6" style="stroke: #C82930; stroke-width: 1.0;" width="6" x="596" y="118.8003"/><text fill="#000000" font-family="sans-serif" font-size="11" lengthAdjust="spacingAndGlyphs" textLength="38" x="608" y="127.4063">shop_id</text><rect fill="none" height="6" style="stroke: #C82930; stroke-width: 1.0;" width="6" x="596" y="133.8232"/><text fill="#000000" font-family="sans-serif" font-size="11" lengthAdjust="spacingAndGlyphs" textLength="51" x="608" y="142.4292">product_id</text><rect fill="none" height="6" style="stroke: #C82930; stroke-width: 1.0;" width="6" x="596" y="148.8462"/><text fill="#000000" font-family="sans-serif" font-size="11" lengthAdjust="spacingAndGlyphs" textLength="35" x="608" y="157.4521">amount</text><line style="stroke: #A80036; stroke-width: 1.5;" x1="589" x2="686" y1="163.8691" y2="163.8691"/><!--class OrderService--><rect fill="#FEFECE" filter="url(#fodu9d7bt28ue)" height="48" id="OrderService" style="stroke: #A80036; stroke-width: 1.5;" width="103" x="51" y="327.5"/><ellipse cx="66" cy="343.5" fill="#ADD1B2" rx="11" ry="11" style="stroke: #A80036; stroke-width: 1.0;"/><path d="M64.9219,348.8594 Q62.8906,348.8594 61.7031,347.3594 Q60.5313,345.8594 60.5313,342.75 Q60.5313,340.1094 61.7813,338.3438 Q63.0313,336.5625 65.1875,336.5625 Q65.7188,336.5625 66.1875,336.7344 Q66.6563,336.8906 66.9219,336.8906 Q67.1094,336.8906 67.2031,336.8594 Q67.2969,336.8125 67.8438,336.0938 L68.6563,340.0625 L67.6094,340.375 Q67.1563,338.875 66.5625,338.2969 Q65.9844,337.7031 65.0625,337.7031 Q63.8906,337.7031 63.1875,339.1094 Q62.4844,340.5 62.4844,342.6719 Q62.4844,345.0625 63.0781,346.3281 Q63.6875,347.5781 65,347.5781 Q65.9219,347.5781 66.5938,346.9063 Q67.2656,346.2188 67.5938,344.6406 L68.6406,345.1406 Q68.2344,346.9063 67.25,347.8906 Q66.2656,348.8594 64.9219,348.8594 Z "/><text fill="#000000" font-family="sans-serif" font-size="12" lengthAdjust="spacingAndGlyphs" textLength="71" x="80" y="349.0576">OrderService</text><line style="stroke: #A80036; stroke-width: 1.5;" x1="52" x2="153" y1="359.5" y2="359.5"/><line style="stroke: #A80036; stroke-width: 1.5;" x1="52" x2="153" y1="367.5" y2="367.5"/><!--reverse link OrderServiceInterface to OrderService--><path d="M102.5,186.853 C102.5,235.06 102.5,294.988 102.5,327.2787 " fill="none" id="OrderServiceInterface&lt;-OrderService" style="stroke: #A80036; stroke-width: 1.0; stroke-dasharray: 7.0,7.0;"/><polygon fill="none" points="95.5001,186.687,102.5,166.687,109.5,186.687,95.5001,186.687" style="stroke: #A80036; stroke-width: 1.0;"/><!--reverse link Order to OrderItem--><path d="M484.5,230.326 C484.5,246.102 484.5,261.919 484.5,276.656 " fill="none" id="Order&lt;-OrderItem" style="stroke: #A80036; stroke-width: 1.0;"/><polygon fill="#FFFFFF" points="484.5,217.107,480.5,223.107,484.5,229.107,488.5,223.107,484.5,217.107" style="stroke: #A80036; stroke-width: 1.0;"/><text fill="#000000" font-family="sans-serif" font-size="13" lengthAdjust="spacingAndGlyphs" textLength="7" x="477.2539" y="239.9841">1</text><text fill="#000000" font-family="sans-serif" font-size="13" lengthAdjust="spacingAndGlyphs" textLength="32" x="450.85" y="266.0024">many</text><!--
@startuml Order-class
Interface OrderServiceInterface {
    +makeOrder(array info):void
    +getMyOrders(int userId): Collection
    +repalyOrder(int orderId):void
    +addToCart(array info):void
}


abstract OrmModel {
    +createInstance():void
    +updateInstance():void
    +findById(int id):OrmModel
    +delete(int id):void
}
class Order <<OrmModel>> {
    -order_number
    -exorder_number
    -pay_amount
    -pay_status
    -pay_method
    -pay_time
    -user_id
    -shop_id
    +shop(): Shop
    +orderItems(): Collection
}
class OrderItem <<OrmModel>> {
    -thumbnail
    -title
    -info
    -amount
    -unit_price
    -pay_amount
}
class CartItem <<OrmModel>> {
    -user_id
    -shop_id
    -product_id
    -amount
}

OrderServiceInterface <|.. OrderService
Order "1" o- - "many" OrderItem
@enduml

PlantUML version 1.2019.09(Tue Aug 27 00:19:51 CST 2019)
(GPL source distribution)
Java Runtime: Java(TM) SE Runtime Environment
JVM: Java HotSpot(TM) 64-Bit Server VM
Java Version: 11.0.5+10-LTS
Operating System: Windows 7
OS Version: 6.1
Default Encoding: GBK
Language: zh
Country: CN
--></g></svg>